0
SECTION
2
HEADER
9
$INSUNITS
70
4
0
ENDSEC
0
SECTION
2
TABLES
0
TABLE
2
LTYPE
0
LTYPE
72
65
70
64
2
CONTINUOUS
3
______
73
0
40
0
0
ENDTAB
0
TABLE
2
LAYER
0
ENDTAB
0
ENDSEC
0
SECTION
2
ENTITIES
0
LINE
8
0
10
64.2983908
20
-74.0128263
11
40.657653
21
-80.7069581
0
LINE
8
0
10
38.475
20
-83.5934688
11
38.475
21
-141.2323594
0
LINE
8
0
10
39.3536797
20
-143.3536797
11
56.7752114
21
-160.7752114
0
LINE
8
0
10
58.5794206
20
-161.6370841
11
95.4668897
21
-165.558193
0
LINE
8
0
10
95.7840008
20
-165.575
11
118.3198302
21
-165.575
0
LINE
8
0
10
119.0203514
20
-165.6579347
11
167.6667216
21
-177.3401594
0
LINE
8
0
10
168.5559582
20
-177.7130804
11
201.3003813
21
-198.1740669
0
LINE
8
0
10
205.4342835
20
-197.2196805
11
215.6203978
21
-180.91849
0
LINE
8
0
10
216.0756582
20
-179.3884921
11
216.4673113
21
-159.731065
0
LINE
8
0
10
215.0576644
20
-157.1271608
11
198.2602421
21
-146.6309663
0
LINE
8
0
10
175.825
20
-136.7072353
11
175.825
21
-74.8895313
0
LINE
8
0
10
173.2916893
20
-71.9260534
11
157.066266
21
-69.3708687
0
LINE
8
0
10
156.498237
20
-69.2233023
11
138.2259835
21
-62.5090884
0
LINE
8
0
10
137.1912652
20
-62.325
11
114.6769558
21
-62.325
0
LINE
8
0
10
114.6730189
20
-62.3249974
11
77.8199463
21
-62.2766338
0
LINE
8
0
10
75.6946891
20
-63.1553109
11
65.602364
21
-73.247636
0
LINE
8
0
10
178.825
20
-139.7072353
11
193.85
21
-139.7072353
0
LINE
8
0
10
196.85
20
-142.7072353
11
196.85
21
-144.0868221
0
ARC
8
0
10
41.475
20
-83.5934688
40
3
50
105.8100491
51
180
0
ARC
8
0
10
41.475
20
-141.2323594
40
3
50
180
51
225
0
ARC
8
0
10
58.8965317
20
-158.6538911
40
3
50
225
51
263.9322889
0
ARC
8
0
10
95.7840008
20
-162.575
40
3
50
263.9322889
51
270
0
ARC
8
0
10
118.3198302
20
-168.575
40
3
50
76.4963623
51
90
0
ARC
8
0
10
166.9662003
20
-180.2572247
40
3
50
57.9999984
51
76.4963623
0
ARC
8
0
10
202.8901392
20
-195.6299226
40
3
50
237.9999984
51
327.9999984
0
ARC
8
0
10
213.0762535
20
-179.3287321
40
3
50
327.9999984
51
358.8585926
0
ARC
8
0
10
213.4679066
20
-159.671305
40
3
50
358.8585926
51
57.9999984
0
ARC
8
0
10
199.85
20
-144.0868221
40
3
50
180
51
237.9999984
0
ARC
8
0
10
193.85
20
-142.7072353
40
3
50
0
51
90
0
ARC
8
0
10
178.825
20
-136.7072353
40
3
50
180
51
270
0
ARC
8
0
10
172.825
20
-74.8895313
40
3
50
0
51
81.0505447
0
ARC
8
0
10
157.5329553
20
-66.4073907
40
3
50
249.8239362
51
261.0505447
0
ARC
8
0
10
137.1912652
20
-65.325
40
3
50
69.8239362
51
90
0
ARC
8
0
10
114.6769558
20
-59.325
40
3
50
269.9248107
51
270
0
ARC
8
0
10
77.8160094
20
-65.2766312
40
3
50
89.9248107
51
135
0
ARC
8
0
10
63.4810437
20
-71.1263157
40
3
50
285.8100491
51
315
0
LINE
8
0
10
43
20
-137.95
11
57
21
-137.95
0
LINE
8
0
10
57
20
-137.95
11
57
21
-123.95
0
LINE
8
0
10
57
20
-123.95
11
43
21
-123.95
0
LINE
8
0
10
43
20
-123.95
11
43
21
-137.95
0
LINE
8
0
10
43
20
-118.9
11
57
21
-118.9
0
LINE
8
0
10
57
20
-118.9
11
57
21
-104.9
0
LINE
8
0
10
57
20
-104.9
11
43
21
-104.9
0
LINE
8
0
10
43
20
-104.9
11
43
21
-118.9
0
LINE
8
0
10
62.05
20
-157
11
76.05
21
-157
0
LINE
8
0
10
76.05
20
-157
11
76.05
21
-143
0
LINE
8
0
10
76.05
20
-143
11
62.05
21
-143
0
LINE
8
0
10
62.05
20
-143
11
62.05
21
-157
0
LINE
8
0
10
62.05
20
-137.95
11
76.05
21
-137.95
0
LINE
8
0
10
76.05
20
-137.95
11
76.05
21
-123.95
0
LINE
8
0
10
76.05
20
-123.95
11
62.05
21
-123.95
0
LINE
8
0
10
62.05
20
-123.95
11
62.05
21
-137.95
0
LINE
8
0
10
62.05
20
-118.9
11
76.05
21
-118.9
0
LINE
8
0
10
76.05
20
-118.9
11
76.05
21
-104.9
0
LINE
8
0
10
76.05
20
-104.9
11
62.05
21
-104.9
0
LINE
8
0
10
62.05
20
-104.9
11
62.05
21
-118.9
0
LINE
8
0
10
81.1
20
-157
11
95.1
21
-157
0
LINE
8
0
10
95.1
20
-157
11
95.1
21
-143
0
LINE
8
0
10
95.1
20
-143
11
81.1
21
-143
0
LINE
8
0
10
81.1
20
-143
11
81.1
21
-157
0
LINE
8
0
10
81.1
20
-137.95
11
95.1
21
-137.95
0
LINE
8
0
10
95.1
20
-137.95
11
95.1
21
-123.95
0
LINE
8
0
10
95.1
20
-123.95
11
81.1
21
-123.95
0
LINE
8
0
10
81.1
20
-123.95
11
81.1
21
-137.95
0
LINE
8
0
10
81.1
20
-118.9
11
95.1
21
-118.9
0
LINE
8
0
10
95.1
20
-118.9
11
95.1
21
-104.9
0
LINE
8
0
10
95.1
20
-104.9
11
81.1
21
-104.9
0
LINE
8
0
10
81.1
20
-104.9
11
81.1
21
-118.9
0
LINE
8
0
10
100.15
20
-161.05
11
114.15
21
-161.05
0
LINE
8
0
10
114.15
20
-161.05
11
114.15
21
-147.05
0
LINE
8
0
10
114.15
20
-147.05
11
100.15
21
-147.05
0
LINE
8
0
10
100.15
20
-147.05
11
100.15
21
-161.05
0
LINE
8
0
10
100.15
20
-142
11
114.15
21
-142
0
LINE
8
0
10
114.15
20
-142
11
114.15
21
-128
0
LINE
8
0
10
114.15
20
-128
11
100.15
21
-128
0
LINE
8
0
10
100.15
20
-128
11
100.15
21
-142
0
LINE
8
0
10
100.15
20
-122.95
11
114.15
21
-122.95
0
LINE
8
0
10
114.15
20
-122.95
11
114.15
21
-108.95
0
LINE
8
0
10
114.15
20
-108.95
11
100.15
21
-108.95
0
LINE
8
0
10
100.15
20
-108.95
11
100.15
21
-122.95
0
LINE
8
0
10
100.15
20
-103.9
11
114.15
21
-103.9
0
LINE
8
0
10
114.15
20
-103.9
11
114.15
21
-89.9
0
LINE
8
0
10
114.15
20
-89.9
11
100.15
21
-89.9
0
LINE
8
0
10
100.15
20
-89.9
11
100.15
21
-103.9
0
LINE
8
0
10
119.2
20
-157.05
11
133.2
21
-157.05
0
LINE
8
0
10
133.2
20
-157.05
11
133.2
21
-143.05
0
LINE
8
0
10
133.2
20
-143.05
11
119.2
21
-143.05
0
LINE
8
0
10
119.2
20
-143.05
11
119.2
21
-157.05
0
LINE
8
0
10
119.2
20
-138
11
133.2
21
-138
0
LINE
8
0
10
133.2
20
-138
11
133.2
21
-124
0
LINE
8
0
10
133.2
20
-124
11
119.2
21
-124
0
LINE
8
0
10
119.2
20
-124
11
119.2
21
-138
0
LINE
8
0
10
119.2
20
-118.95
11
133.2
21
-118.95
0
LINE
8
0
10
133.2
20
-118.95
11
133.2
21
-104.95
0
LINE
8
0
10
133.2
20
-104.95
11
119.2
21
-104.95
0
LINE
8
0
10
119.2
20
-104.95
11
119.2
21
-118.95
0
LINE
8
0
10
119.2
20
-99.9
11
133.2
21
-99.9
0
LINE
8
0
10
133.2
20
-99.9
11
133.2
21
-85.9
0
LINE
8
0
10
133.2
20
-85.9
11
119.2
21
-85.9
0
LINE
8
0
10
119.2
20
-85.9
11
119.2
21
-99.9
0
LINE
8
0
10
138.25
20
-145
11
152.25
21
-145
0
LINE
8
0
10
152.25
20
-145
11
152.25
21
-131
0
LINE
8
0
10
152.25
20
-131
11
138.25
21
-131
0
LINE
8
0
10
138.25
20
-131
11
138.25
21
-145
0
LINE
8
0
10
138.25
20
-125.95
11
152.25
21
-125.95
0
LINE
8
0
10
152.25
20
-125.95
11
152.25
21
-111.95
0
LINE
8
0
10
152.25
20
-111.95
11
138.25
21
-111.95
0
LINE
8
0
10
138.25
20
-111.95
11
138.25
21
-125.95
0
LINE
8
0
10
138.25
20
-106.9
11
152.25
21
-106.9
0
LINE
8
0
10
152.25
20
-106.9
11
152.25
21
-92.9
0
LINE
8
0
10
152.25
20
-92.9
11
138.25
21
-92.9
0
LINE
8
0
10
138.25
20
-92.9
11
138.25
21
-106.9
0
LINE
8
0
10
157.3
20
-148
11
171.3
21
-148
0
LINE
8
0
10
171.3
20
-148
11
171.3
21
-134
0
LINE
8
0
10
171.3
20
-134
11
157.3
21
-134
0
LINE
8
0
10
157.3
20
-134
11
157.3
21
-148
0
LINE
8
0
10
157.3
20
-128.95
11
171.3
21
-128.95
0
LINE
8
0
10
171.3
20
-128.95
11
171.3
21
-114.95
0
LINE
8
0
10
171.3
20
-114.95
11
157.3
21
-114.95
0
LINE
8
0
10
157.3
20
-114.95
11
157.3
21
-128.95
0
LINE
8
0
10
157.3
20
-109.9
11
171.3
21
-109.9
0
LINE
8
0
10
171.3
20
-109.9
11
171.3
21
-95.9
0
LINE
8
0
10
171.3
20
-95.9
11
157.3
21
-95.9
0
LINE
8
0
10
157.3
20
-95.9
11
157.3
21
-109.9
0
LINE
8
0
10
156.4766837
20
-167.8636082
11
169.8649503
21
-171.956812
0
LINE
8
0
10
169.8649503
20
-171.956812
11
173.9581541
21
-158.5685454
0
LINE
8
0
10
173.9581541
20
-158.5685454
11
160.5698875
21
-154.4753416
0
LINE
8
0
10
160.5698875
20
-154.4753416
11
156.4766837
21
-167.8636082
0
LINE
8
0
10
174.3770031
20
-176.0146907
11
186.2496764
21
-183.4335604
0
LINE
8
0
10
186.2496764
20
-183.4335604
11
193.6685461
21
-171.5608871
0
LINE
8
0
10
193.6685461
20
-171.5608871
11
181.7958728
21
-164.1420174
0
LINE
8
0
10
181.7958728
20
-164.1420174
11
174.3770031
21
-176.0146907
0
LINE
8
0
10
190.5323194
20
-186.1096527
11
202.4049927
21
-193.5285224
0
LINE
8
0
10
202.4049927
20
-193.5285224
11
209.8238624
21
-181.6558491
0
LINE
8
0
10
209.8238624
20
-181.6558491
11
197.9511891
21
-174.2369794
0
LINE
8
0
10
197.9511891
20
-174.2369794
11
190.5323194
21
-186.1096527
0
LINE
8
0
10
138
20
-148.3
11
138
21
-165.8
0
LINE
8
0
10
138
20
-165.8
11
152.5
21
-165.8
0
LINE
8
0
10
152.5
20
-165.8
11
152.5
21
-148.3
0
LINE
8
0
10
152.5
20
-148.3
11
138
21
-148.3
0
CIRCLE
8
0
10
72.86
20
-75.8
40
1.1
0
CIRCLE
8
0
10
53.81
20
-147
40
1.1
0
CIRCLE
8
0
10
107.15
20
-66.325
40
1.1
0
CIRCLE
8
0
10
126.2
20
-162.575
40
1.1
0
CIRCLE
8
0
10
145.25
20
-69.325
40
1.1
0
CIRCLE
8
0
10
185.9595139
20
-152.5346494
40
1.1
0
CIRCLE
8
0
10
205.5070225
20
-164.7492884
40
1.1
0
LINE
8
0
10
42
20
-100.85
11
58
21
-100.85
0
LINE
8
0
10
58
20
-100.85
11
58
21
-84.85
0
LINE
8
0
10
58
20
-84.85
11
42
21
-84.85
0
LINE
8
0
10
42
20
-84.85
11
42
21
-100.85
0
LINE
8
0
10
61.05
20
-100.85
11
77.05
21
-100.85
0
LINE
8
0
10
77.05
20
-100.85
11
77.05
21
-84.85
0
LINE
8
0
10
77.05
20
-84.85
11
61.05
21
-84.85
0
LINE
8
0
10
61.05
20
-84.85
11
61.05
21
-100.85
0
LINE
8
0
10
80.1
20
-100.85
11
96.1
21
-100.85
0
LINE
8
0
10
96.1
20
-100.85
11
96.1
21
-84.85
0
LINE
8
0
10
96.1
20
-84.85
11
80.1
21
-84.85
0
LINE
8
0
10
80.1
20
-84.85
11
80.1
21
-100.85
0
LINE
8
0
10
80.1
20
-81.8
11
96.1
21
-81.8
0
LINE
8
0
10
96.1
20
-81.8
11
96.1
21
-65.8
0
LINE
8
0
10
96.1
20
-65.8
11
80.1
21
-65.8
0
LINE
8
0
10
80.1
20
-65.8
11
80.1
21
-81.8
0
LINE
8
0
10
99.15
20
-85.85
11
115.15
21
-85.85
0
LINE
8
0
10
115.15
20
-85.85
11
115.15
21
-69.85
0
LINE
8
0
10
115.15
20
-69.85
11
99.15
21
-69.85
0
LINE
8
0
10
99.15
20
-69.85
11
99.15
21
-85.85
0
LINE
8
0
10
118.2
20
-81.85
11
134.2
21
-81.85
0
LINE
8
0
10
134.2
20
-81.85
11
134.2
21
-65.85
0
LINE
8
0
10
134.2
20
-65.85
11
118.2
21
-65.85
0
LINE
8
0
10
118.2
20
-65.85
11
118.2
21
-81.85
0
LINE
8
0
10
137.25
20
-88.85
11
153.25
21
-88.85
0
LINE
8
0
10
153.25
20
-88.85
11
153.25
21
-72.85
0
LINE
8
0
10
153.25
20
-72.85
11
137.25
21
-72.85
0
LINE
8
0
10
137.25
20
-72.85
11
137.25
21
-88.85
0
LINE
8
0
10
156.3
20
-91.85
11
172.3
21
-91.85
0
LINE
8
0
10
172.3
20
-91.85
11
172.3
21
-75.85
0
LINE
8
0
10
172.3
20
-75.85
11
156.3
21
-75.85
0
LINE
8
0
10
156.3
20
-75.85
11
156.3
21
-91.85
0
LINE
8
0
10
184.7095293
20
-161.1869996
11
198.2782989
21
-169.6657078
0
LINE
8
0
10
198.2782989
20
-169.6657078
11
206.7570071
21
-156.0969382
0
LINE
8
0
10
206.7570071
20
-156.0969382
11
193.1882375
21
-147.61823
0
LINE
8
0
10
193.1882375
20
-147.61823
11
184.7095293
21
-161.1869996
0
ENDSEC
0
EOF