M48
; DRILL file {KiCad 8.0.6-8.0.6-0~ubuntu22.04.1} date 2024-10-26T11:31:24+0800
; FORMAT={-:-/ absolute / inch / decimal}
; #@! TF.CreationDate,2024-10-26T11:31:24+08:00
; #@! TF.GenerationSoftware,Kicad,Pcbnew,8.0.6-8.0.6-0~ubuntu22.04.1
; #@! TF.FileFunction,NonPlated,1,2,NPTH
FMAT,2
INCH
; #@! TA.AperFunction,NonPlated,NPTH,ComponentDrill
T1C0.0354
; #@! TA.AperFunction,NonPlated,NPTH,ComponentDrill
T2C0.0591
; #@! TA.AperFunction,NonPlated,NPTH,ComponentDrill
T3C0.0748
; #@! TA.AperFunction,NonPlated,NPTH,ComponentDrill
T4C0.1181
; #@! TA.AperFunction,NonPlated,NPTH,ComponentDrill
T5C0.1614
%
G90
G05
T1
X7.2579Y-2.9547
X7.376Y-2.9547
T2
X7.4114Y-4.4154
X7.687Y-4.4154
T3
X1.7685Y-3.6555
X2.1685Y-3.6555
X2.5185Y-3.6555
X2.9185Y-3.6555
X3.2685Y-2.9055
X3.2685Y-3.6555
X3.6685Y-2.9055
X3.6685Y-3.6555
X4.0185Y-3.065
X4.4185Y-3.065
X4.7685Y-2.9075
X5.1685Y-2.9075
X5.5185Y-3.1831
X5.9185Y-3.1831
X6.2685Y-3.3012
X6.6685Y-3.3012
X7.5364Y-6.1398
X7.8756Y-6.3517
T4
X1.8185Y-3.5555
X1.8685Y-3.4555
X2.0685Y-3.4555
X2.1185Y-3.5555
X2.5685Y-3.5555
X2.6185Y-3.4555
X2.8185Y-3.4555
X2.8685Y-3.5555
X3.3185Y-2.8055
X3.3185Y-3.5555
X3.3685Y-2.7055
X3.3685Y-3.4555
X3.5685Y-2.7055
X3.5685Y-3.4555
X3.6185Y-2.8055
X3.6185Y-3.5555
X4.0685Y-2.965
X4.1185Y-2.865
X4.3185Y-2.865
X4.3685Y-2.965
X4.8185Y-2.8075
X4.8685Y-2.7075
X5.0685Y-2.7075
X5.1185Y-2.8075
X5.5685Y-3.0831
X5.6185Y-2.9831
X5.8185Y-2.9831
X5.8685Y-3.0831
X6.3185Y-3.2012
X6.3685Y-3.1012
X6.5685Y-3.1012
X6.6185Y-3.2012
X7.6318Y-6.0815
X7.7272Y-6.0231
X7.8862Y-6.2404
X7.8968Y-6.1291
T5
X1.9685Y-3.6555
X2.7185Y-3.6555
X3.4685Y-2.9055
X3.4685Y-3.6555
X4.2185Y-3.065
X4.9685Y-2.9075
X5.7185Y-3.1831
X6.4685Y-3.3012
X7.706Y-6.2457
M30
