M48
; DRILL file {KiCad 8.0.6-8.0.6-0~ubuntu22.04.1} date 2024-10-26T11:31:24+0800
; FORMAT={-:-/ absolute / inch / decimal}
; #@! TF.CreationDate,2024-10-26T11:31:24+08:00
; #@! TF.GenerationSoftware,Kicad,Pcbnew,8.0.6-8.0.6-0~ubuntu22.04.1
; #@! TF.FileFunction,Plated,1,2,PTH
FMAT,2
INCH
; #@! TA.AperFunction,Plated,PTH,ViaDrill
T1C0.0157
; #@! TA.AperFunction,Plated,PTH,ComponentDrill
T2C0.0315
; #@! TA.AperFunction,Plated,PTH,ComponentDrill
T3C0.0354
; #@! TA.AperFunction,Plated,PTH,ComponentDrill
T4C0.0430
; #@! TA.AperFunction,Plated,PTH,ComponentDrill
T5C0.0512
; #@! TA.AperFunction,Plated,PTH,ComponentDrill
T6C0.0787
; #@! TA.AperFunction,Plated,PTH,ComponentDrill
T7C0.0866
; #@! TA.AperFunction,Plated,PTH,ComponentDrill
T8C0.1181
; #@! TA.AperFunction,Plated,PTH,ComponentDrill
T9C0.2008
%
G90
G05
T1
X1.7385Y-3.4555
X2.2047Y-3.878
X2.2047Y-4.3406
X2.2047Y-4.4705
X2.2047Y-5.0906
X2.2047Y-5.2205
X2.2067Y-3.7461
X2.4921Y-3.4567
X2.9537Y-3.749
X2.9547Y-3.878
X2.9547Y-4.3406
X2.9547Y-4.4705
X2.9547Y-5.0906
X2.9547Y-5.2205
X2.9547Y-5.8406
X2.9547Y-5.9705
X3.2385Y-3.4555
X3.2402Y-2.6929
X3.7037Y-2.999
X3.7047Y-3.128
X3.7047Y-3.748
X3.7047Y-3.878
X3.7047Y-4.3406
X3.7047Y-4.4705
X3.7047Y-5.0906
X3.7047Y-5.2205
X3.7047Y-5.8406
X3.7047Y-5.9705
X3.8715Y-3.6378
X3.9885Y-2.865
X4.4547Y-3.1575
X4.4547Y-3.2874
X4.4547Y-3.75
X4.4547Y-3.8799
X4.4547Y-4.5
X4.4547Y-4.6299
X4.4547Y-5.25
X4.4547Y-5.3799
X4.4547Y-6.0
X4.4547Y-6.1299
X4.7362Y-2.7047
X5.2047Y-3.0
X5.2047Y-3.1299
X5.2047Y-3.5925
X5.2047Y-3.7224
X5.2047Y-4.3425
X5.2047Y-4.4724
X5.2047Y-5.0925
X5.2047Y-5.2224
X5.2047Y-5.8425
X5.2047Y-5.9724
X5.374Y-5.9193
X5.374Y-6.0492
X5.4803Y-3.9409
X5.4921Y-2.9843
X5.725Y-6.0735
X5.7323Y-6.1212
X5.878Y-6.122
X5.9547Y-3.2756
X5.9547Y-3.4055
X5.9547Y-3.8681
X5.9547Y-3.998
X5.9547Y-4.6181
X5.9547Y-4.748
X5.9547Y-5.3681
X5.9547Y-5.498
X5.9724Y-3.7362
X6.0787Y-3.8228
X6.1142Y-6.0394
X6.1969Y-3.4685
X6.2126Y-3.7205
X6.2165Y-3.5906
X6.2385Y-3.1012
X6.311Y-3.9567
X6.7047Y-3.3937
X6.7047Y-3.5236
X6.7047Y-3.9862
X6.7047Y-4.1161
X6.7047Y-4.7362
X6.7047Y-4.8661
X6.7047Y-5.4862
X6.7047Y-5.6161
X6.7115Y-6.557
X6.7495Y-6.4328
X6.8031Y-3.6063
X6.937Y-4.9567
X7.0512Y-5.9094
X7.1299Y-4.4173
X7.1496Y-5.8701
X7.2854Y-3.2185
X7.2953Y-3.4764
X7.3228Y-3.3386
X7.3307Y-3.1772
X7.3327Y-3.2776
X7.3425Y-3.0354
X7.4109Y-7.0223
X7.4134Y-3.6457
X7.4797Y-6.9121
X7.6299Y-5.937
X7.7885Y-6.5596
X7.8573Y-6.4494
X8.0469Y-7.4197
X8.1158Y-7.3096
T2
X7.0118Y-2.9587
X7.622Y-2.9587
T3
X5.4744Y-5.9134
X5.4744Y-5.9862
X5.5685Y-5.9616
X5.6685Y-5.9616
X5.7685Y-5.9616
X5.8685Y-5.9616
X5.9626Y-5.9134
X5.9626Y-5.9862
T4
X7.0169Y-3.078
X7.0169Y-3.178
X7.0169Y-3.278
X7.0169Y-3.378
X7.0169Y-3.478
X7.0169Y-3.578
X7.0169Y-3.678
X7.0169Y-3.778
X7.0169Y-3.878
X7.0169Y-3.978
X7.0169Y-4.078
X7.0169Y-4.178
X7.6169Y-3.078
X7.6169Y-3.178
X7.6169Y-3.278
X7.6169Y-3.378
X7.6169Y-3.478
X7.6169Y-3.578
X7.6169Y-3.678
X7.6169Y-3.778
X7.6169Y-3.878
X7.6169Y-3.978
X7.6169Y-4.078
X7.6169Y-4.178
T5
X7.0413Y-4.2874
X7.0413Y-4.5433
T6
X2.1185Y-5.7874
X2.8685Y-2.9843
X4.2185Y-2.6112
X4.9685Y-6.4006
X5.7185Y-2.7293
X7.3212Y-6.0053
X8.0908Y-6.4862
T7
X7.0217Y-4.6909
X7.6122Y-4.6909
T8
X1.7953Y-4.5906
X1.7953Y-5.3406
X1.8661Y-4.6319
X1.8661Y-5.3819
X2.0709Y-4.6319
X2.0709Y-5.3819
X2.1417Y-4.5906
X2.1417Y-5.3406
X2.5453Y-4.5906
X2.5453Y-5.3406
X2.5453Y-6.0906
X2.6161Y-4.6319
X2.6161Y-5.3819
X2.6161Y-6.1319
X2.8209Y-4.6319
X2.8209Y-5.3819
X2.8209Y-6.1319
X2.8917Y-4.5906
X2.8917Y-5.3406
X2.8917Y-6.0906
X3.2953Y-4.5906
X3.2953Y-5.3406
X3.2953Y-6.0906
X3.3661Y-4.6319
X3.3661Y-5.3819
X3.3661Y-6.1319
X3.5709Y-4.6319
X3.5709Y-5.3819
X3.5709Y-6.1319
X3.6417Y-4.5906
X3.6417Y-5.3406
X3.6417Y-6.0906
X4.0453Y-4.0
X4.0453Y-4.75
X4.0453Y-5.5
X4.0453Y-6.25
X4.1161Y-4.0413
X4.1161Y-4.7913
X4.1161Y-5.5413
X4.1161Y-6.2913
X4.3209Y-4.0413
X4.3209Y-4.7913
X4.3209Y-5.5413
X4.3209Y-6.2913
X4.3917Y-4.0
X4.3917Y-4.75
X4.3917Y-5.5
X4.3917Y-6.25
X4.7953Y-3.8425
X4.7953Y-4.5925
X4.7953Y-5.3425
X4.7953Y-6.0925
X4.8661Y-3.8839
X4.8661Y-4.6339
X4.8661Y-5.3839
X4.8661Y-6.1339
X5.0709Y-3.8839
X5.0709Y-4.6339
X5.0709Y-5.3839
X5.0709Y-6.1339
X5.1417Y-3.8425
X5.1417Y-4.5925
X5.1417Y-5.3425
X5.1417Y-6.0925
X5.5453Y-4.1181
X5.5453Y-4.8681
X5.5453Y-5.6181
X5.6161Y-4.1594
X5.6161Y-4.9094
X5.6161Y-5.6594
X5.8209Y-4.1594
X5.8209Y-4.9094
X5.8209Y-5.6594
X5.8917Y-4.1181
X5.8917Y-4.8681
X5.8917Y-5.6181
X6.2849Y-6.5521
X6.2953Y-4.2362
X6.2953Y-4.9862
X6.2953Y-5.7362
X6.3405Y-6.6124
X6.3661Y-4.2776
X6.3661Y-5.0276
X6.3661Y-5.7776
X6.5363Y-6.6722
X6.5709Y-4.2776
X6.5709Y-5.0276
X6.5709Y-5.7776
X6.6162Y-6.6534
X6.6417Y-4.2362
X6.6417Y-4.9862
X6.6417Y-5.7362
X7.0Y-6.9072
X7.0382Y-6.9798
X7.2118Y-7.0883
X7.2938Y-7.0908
X7.6361Y-7.3046
X7.6743Y-7.3772
X7.8479Y-7.4857
X7.9299Y-7.4882
T9
X1.9685Y-4.4055
X1.9685Y-5.1555
X2.7185Y-4.4055
X2.7185Y-5.1555
X2.7185Y-5.9055
X3.4685Y-4.4055
X3.4685Y-5.1555
X3.4685Y-5.9055
X4.2185Y-3.815
X4.2185Y-4.565
X4.2185Y-5.315
X4.2185Y-6.065
X4.9685Y-3.6575
X4.9685Y-4.4075
X4.9685Y-5.1575
X4.9685Y-5.9075
X5.7185Y-3.9331
X5.7185Y-4.6831
X5.7185Y-5.4331
X6.4685Y-4.0512
X6.4685Y-4.8012
X6.4685Y-5.5512
X6.5046Y-6.4258
X7.245Y-6.842
X7.881Y-7.2395
T3
G00X7.3602Y-4.3248
M15
G01X7.2933Y-4.3248
M16
G05
G00X7.3602Y-4.5059
M15
G01X7.2933Y-4.5059
M16
G05
G00X7.5177Y-4.3248
M15
G01X7.4941Y-4.3248
M16
G05
G00X7.5177Y-4.5059
M15
G01X7.4941Y-4.5059
M16
G05
G00X7.6358Y-4.3248
M15
G01X7.6122Y-4.3248
M16
G05
G00X7.6358Y-4.5059
M15
G01X7.6122Y-4.5059
M16
G05
M30
