0
SECTION
2
HEADER
9
$INSUNITS
70
4
0
ENDSEC
0
SECTION
2
TABLES
0
TABLE
2
LTYPE
0
LTYPE
72
65
70
64
2
CONTINUOUS
3
______
73
0
40
0
0
ENDTAB
0
TABLE
2
LAYER
0
ENDTAB
0
ENDSEC
0
SECTION
2
ENTITIES
0
LINE
8
0
10
64.2983908
20
-74.0128263
11
40.657653
21
-80.7069581
0
LINE
8
0
10
38.475
20
-83.5934688
11
38.475
21
-102.375
0
LINE
8
0
10
175.825
20
-93.375
11
175.825
21
-74.8895313
0
LINE
8
0
10
173.2916893
20
-71.9260534
11
157.066266
21
-69.3708687
0
LINE
8
0
10
156.498237
20
-69.2233023
11
138.2259835
21
-62.5090884
0
LINE
8
0
10
137.1912652
20
-62.325
11
114.6769558
21
-62.325
0
LINE
8
0
10
114.6730189
20
-62.3249974
11
77.8199463
21
-62.2766338
0
LINE
8
0
10
75.6946891
20
-63.1553109
11
65.602364
21
-73.247636
0
ARC
8
0
10
41.475
20
-83.5934688
40
3
50
105.8100491
51
180
0
ARC
8
0
10
172.825
20
-74.8895313
40
3
50
0
51
81.0505447
0
ARC
8
0
10
157.5329553
20
-66.4073907
40
3
50
249.8239362
51
261.0505447
0
ARC
8
0
10
137.1912652
20
-65.325
40
3
50
69.8239362
51
90
0
ARC
8
0
10
114.6769558
20
-59.325
40
3
50
269.9248107
51
270
0
ARC
8
0
10
77.8160094
20
-65.2766312
40
3
50
89.9248107
51
135
0
ARC
8
0
10
63.4810437
20
-71.1263157
40
3
50
285.8100491
51
315
0
LINE
8
0
10
38.475
20
-102.375
11
97.625
21
-102.375
0
LINE
8
0
10
97.625
20
-102.375
11
97.625
21
-87.375
0
LINE
8
0
10
97.625
20
-87.375
11
116.675
21
-87.375
0
LINE
8
0
10
116.675
20
-87.375
11
116.675
21
-83.375
0
LINE
8
0
10
116.675
20
-83.375
11
135.725
21
-83.375
0
LINE
8
0
10
135.725
20
-90.375
11
154.775
21
-90.375
0
LINE
8
0
10
135.725
20
-83.375
11
135.725
21
-90.375
0
LINE
8
0
10
154.775
20
-93.375
11
175.825
21
-93.375
0
LINE
8
0
10
154.775
20
-90.375
11
154.775
21
-93.375
0
LINE
8
0
10
43
20
-99.85
11
57
21
-99.85
0
LINE
8
0
10
57
20
-99.85
11
57
21
-85.85
0
LINE
8
0
10
57
20
-85.85
11
43
21
-85.85
0
LINE
8
0
10
43
20
-85.85
11
43
21
-99.85
0
LINE
8
0
10
62.05
20
-99.85
11
76.05
21
-99.85
0
LINE
8
0
10
76.05
20
-99.85
11
76.05
21
-85.85
0
LINE
8
0
10
76.05
20
-85.85
11
62.05
21
-85.85
0
LINE
8
0
10
62.05
20
-85.85
11
62.05
21
-99.85
0
LINE
8
0
10
81.1
20
-99.85
11
95.1
21
-99.85
0
LINE
8
0
10
95.1
20
-99.85
11
95.1
21
-85.85
0
LINE
8
0
10
95.1
20
-85.85
11
81.1
21
-85.85
0
LINE
8
0
10
81.1
20
-85.85
11
81.1
21
-99.85
0
LINE
8
0
10
81.1
20
-80.8
11
95.1
21
-80.8
0
LINE
8
0
10
95.1
20
-80.8
11
95.1
21
-66.8
0
LINE
8
0
10
95.1
20
-66.8
11
81.1
21
-66.8
0
LINE
8
0
10
81.1
20
-66.8
11
81.1
21
-80.8
0
LINE
8
0
10
100.15
20
-84.85
11
114.15
21
-84.85
0
LINE
8
0
10
114.15
20
-84.85
11
114.15
21
-70.85
0
LINE
8
0
10
114.15
20
-70.85
11
100.15
21
-70.85
0
LINE
8
0
10
100.15
20
-70.85
11
100.15
21
-84.85
0
LINE
8
0
10
119.2
20
-80.85
11
133.2
21
-80.85
0
LINE
8
0
10
133.2
20
-80.85
11
133.2
21
-66.85
0
LINE
8
0
10
133.2
20
-66.85
11
119.2
21
-66.85
0
LINE
8
0
10
119.2
20
-66.85
11
119.2
21
-80.85
0
LINE
8
0
10
138.25
20
-87.85
11
152.25
21
-87.85
0
LINE
8
0
10
152.25
20
-87.85
11
152.25
21
-73.85
0
LINE
8
0
10
152.25
20
-73.85
11
138.25
21
-73.85
0
LINE
8
0
10
138.25
20
-73.85
11
138.25
21
-87.85
0
LINE
8
0
10
157.3
20
-90.85
11
171.3
21
-90.85
0
LINE
8
0
10
171.3
20
-90.85
11
171.3
21
-76.85
0
LINE
8
0
10
171.3
20
-76.85
11
157.3
21
-76.85
0
LINE
8
0
10
157.3
20
-76.85
11
157.3
21
-90.85
0
CIRCLE
8
0
10
72.86
20
-75.8
40
1.1
0
CIRCLE
8
0
10
107.15
20
-66.325
40
1.1
0
CIRCLE
8
0
10
145.25
20
-69.325
40
1.1
0
ENDSEC
0
EOF