M48
; DRILL file {KiCad 8.0.5} date 2024-11-05T10:34:03+0800
; FORMAT={-:-/ absolute / inch / decimal}
; #@! TF.CreationDate,2024-11-05T10:34:03+08:00
; #@! TF.GenerationSoftware,Kicad,Pcbnew,8.0.5
; #@! TF.FileFunction,MixedPlating,1,2
FMAT,2
INCH
; #@! TA.AperFunction,Plated,PTH,ViaDrill
T1C0.0118
; #@! TA.AperFunction,Plated,PTH,ViaDrill
T2C0.0157
; #@! TA.AperFunction,Plated,PTH,ComponentDrill
T3C0.0315
; #@! TA.AperFunction,Plated,PTH,ComponentDrill
T4C0.0354
; #@! TA.AperFunction,Plated,PTH,ComponentDrill
T5C0.0430
; #@! TA.AperFunction,Plated,PTH,ComponentDrill
T6C0.0512
; #@! TA.AperFunction,Plated,PTH,ComponentDrill
T7C0.0787
; #@! TA.AperFunction,Plated,PTH,ComponentDrill
T8C0.0866
; #@! TA.AperFunction,Plated,PTH,ComponentDrill
T9C0.1181
; #@! TA.AperFunction,Plated,PTH,ComponentDrill
T10C0.2008
; #@! TA.AperFunction,NonPlated,NPTH,ComponentDrill
T11C0.0354
; #@! TA.AperFunction,NonPlated,NPTH,ComponentDrill
T12C0.0591
; #@! TA.AperFunction,NonPlated,NPTH,ComponentDrill
T13C0.0748
; #@! TA.AperFunction,NonPlated,NPTH,ComponentDrill
T14C0.1181
; #@! TA.AperFunction,NonPlated,NPTH,ComponentDrill
T15C0.1614
%
G90
G05
T1
X5.8661Y-6.0827
X7.1496Y-3.387
T2
X1.7323Y-3.4646
X2.1985Y-3.887
X2.1985Y-4.3496
X2.1985Y-4.4795
X2.1985Y-5.0996
X2.1985Y-5.2295
X2.2005Y-3.7551
X2.4859Y-3.4657
X2.9475Y-3.7581
X2.9485Y-3.887
X2.9485Y-4.3496
X2.9485Y-4.4795
X2.9485Y-5.0996
X2.9485Y-5.2295
X2.9485Y-5.8496
X2.9485Y-5.9795
X3.2323Y-3.4646
X3.2339Y-2.702
X3.6975Y-3.0081
X3.6985Y-3.137
X3.6985Y-3.7571
X3.6985Y-3.887
X3.6985Y-4.3496
X3.6985Y-4.4795
X3.6985Y-5.0996
X3.6985Y-5.2295
X3.6985Y-5.8496
X3.6985Y-5.9795
X3.8653Y-3.6469
X3.9823Y-2.874
X4.4485Y-3.1665
X4.4485Y-3.2965
X4.4485Y-3.7591
X4.4485Y-3.889
X4.4485Y-4.5091
X4.4485Y-4.639
X4.4485Y-5.2591
X4.4485Y-5.389
X4.4485Y-6.0091
X4.4485Y-6.139
X4.73Y-2.7138
X5.1985Y-3.0091
X5.1985Y-3.139
X5.1985Y-3.6016
X5.1985Y-3.7315
X5.1985Y-4.3516
X5.1985Y-4.4815
X5.1985Y-5.1016
X5.1985Y-5.2315
X5.1985Y-5.8516
X5.1985Y-5.9815
X5.3678Y-5.9283
X5.3678Y-6.0583
X5.4741Y-3.95
X5.4859Y-2.9933
X5.689Y-6.1811
X5.7087Y-6.122
X5.8071Y-6.1811
X5.9485Y-3.2846
X5.9485Y-3.4146
X5.9485Y-3.8772
X5.9485Y-4.0071
X5.9485Y-4.6272
X5.9485Y-4.7571
X5.9485Y-5.3772
X5.9485Y-5.5071
X5.9662Y-3.7453
X6.0725Y-3.8319
X6.108Y-6.0484
X6.1906Y-3.4776
X6.2064Y-3.7295
X6.2103Y-3.5996
X6.2323Y-3.1102
X6.3048Y-3.9657
X6.6985Y-3.4028
X6.6985Y-3.5327
X6.6985Y-3.9953
X6.6985Y-4.1252
X6.6985Y-4.7453
X6.6985Y-4.8752
X6.6985Y-5.4953
X6.6985Y-5.6252
X6.7053Y-6.5661
X6.7433Y-6.4418
X6.7969Y-3.6154
X6.9308Y-4.9657
X7.045Y-5.9185
X7.1237Y-4.4264
X7.1434Y-5.8791
X7.2792Y-3.2276
X7.2891Y-3.4854
X7.3166Y-3.3476
X7.3245Y-3.1862
X7.3265Y-3.2866
X7.3363Y-3.0445
X7.4047Y-7.0314
X7.4072Y-3.6547
X7.4735Y-6.9212
X7.6237Y-5.9461
X7.7823Y-6.5686
X7.8511Y-6.4584
X8.0407Y-7.4288
X8.1096Y-7.3186
T3
X7.0118Y-2.9587
X7.622Y-2.9587
T4
X5.4744Y-5.9134
X5.4744Y-5.9862
X5.5685Y-5.9616
X5.6685Y-5.9616
X5.7685Y-5.9616
X5.8685Y-5.9616
X5.9626Y-5.9134
X5.9626Y-5.9862
T5
X7.0169Y-3.078
X7.0169Y-3.178
X7.0169Y-3.278
X7.0169Y-3.378
X7.0169Y-3.478
X7.0169Y-3.578
X7.0169Y-3.678
X7.0169Y-3.778
X7.0169Y-3.878
X7.0169Y-3.978
X7.0169Y-4.078
X7.0169Y-4.178
X7.6169Y-3.078
X7.6169Y-3.178
X7.6169Y-3.278
X7.6169Y-3.378
X7.6169Y-3.478
X7.6169Y-3.578
X7.6169Y-3.678
X7.6169Y-3.778
X7.6169Y-3.878
X7.6169Y-3.978
X7.6169Y-4.078
X7.6169Y-4.178
T6
X7.0413Y-4.2874
X7.0413Y-4.5433
T7
X2.1185Y-5.7874
X2.8685Y-2.9843
X4.2185Y-2.6112
X4.9685Y-6.4006
X5.7185Y-2.7293
X7.3212Y-6.0053
X8.0908Y-6.4862
T8
X7.0217Y-4.6909
X7.6122Y-4.6909
T9
X1.7953Y-4.5906
X1.7953Y-5.3406
X1.8661Y-4.6319
X1.8661Y-5.3819
X2.0709Y-4.6319
X2.0709Y-5.3819
X2.1417Y-4.5906
X2.1417Y-5.3406
X2.5453Y-4.5906
X2.5453Y-5.3406
X2.5453Y-6.0906
X2.6161Y-4.6319
X2.6161Y-5.3819
X2.6161Y-6.1319
X2.8209Y-4.6319
X2.8209Y-5.3819
X2.8209Y-6.1319
X2.8917Y-4.5906
X2.8917Y-5.3406
X2.8917Y-6.0906
X3.2953Y-4.5906
X3.2953Y-5.3406
X3.2953Y-6.0906
X3.3661Y-4.6319
X3.3661Y-5.3819
X3.3661Y-6.1319
X3.5709Y-4.6319
X3.5709Y-5.3819
X3.5709Y-6.1319
X3.6417Y-4.5906
X3.6417Y-5.3406
X3.6417Y-6.0906
X4.0453Y-4.0
X4.0453Y-4.75
X4.0453Y-5.5
X4.0453Y-6.25
X4.1161Y-4.0413
X4.1161Y-4.7913
X4.1161Y-5.5413
X4.1161Y-6.2913
X4.3209Y-4.0413
X4.3209Y-4.7913
X4.3209Y-5.5413
X4.3209Y-6.2913
X4.3917Y-4.0
X4.3917Y-4.75
X4.3917Y-5.5
X4.3917Y-6.25
X4.7953Y-3.8425
X4.7953Y-4.5925
X4.7953Y-5.3425
X4.7953Y-6.0925
X4.8661Y-3.8839
X4.8661Y-4.6339
X4.8661Y-5.3839
X4.8661Y-6.1339
X5.0709Y-3.8839
X5.0709Y-4.6339
X5.0709Y-5.3839
X5.0709Y-6.1339
X5.1417Y-3.8425
X5.1417Y-4.5925
X5.1417Y-5.3425
X5.1417Y-6.0925
X5.5453Y-4.1181
X5.5453Y-4.8681
X5.5453Y-5.6181
X5.6161Y-4.1594
X5.6161Y-4.9094
X5.6161Y-5.6594
X5.8209Y-4.1594
X5.8209Y-4.9094
X5.8209Y-5.6594
X5.8917Y-4.1181
X5.8917Y-4.8681
X5.8917Y-5.6181
X6.2849Y-6.5521
X6.2953Y-4.2362
X6.2953Y-4.9862
X6.2953Y-5.7362
X6.3405Y-6.6124
X6.3661Y-4.2776
X6.3661Y-5.0276
X6.3661Y-5.7776
X6.5363Y-6.6722
X6.5709Y-4.2776
X6.5709Y-5.0276
X6.5709Y-5.7776
X6.6162Y-6.6534
X6.6417Y-4.2362
X6.6417Y-4.9862
X6.6417Y-5.7362
X7.0Y-6.9072
X7.0382Y-6.9798
X7.2118Y-7.0883
X7.2938Y-7.0908
X7.6361Y-7.3046
X7.6743Y-7.3772
X7.8479Y-7.4857
X7.9299Y-7.4882
T10
X1.9685Y-4.4055
X1.9685Y-5.1555
X2.7185Y-4.4055
X2.7185Y-5.1555
X2.7185Y-5.9055
X3.4685Y-4.4055
X3.4685Y-5.1555
X3.4685Y-5.9055
X4.2185Y-3.815
X4.2185Y-4.565
X4.2185Y-5.315
X4.2185Y-6.065
X4.9685Y-3.6575
X4.9685Y-4.4075
X4.9685Y-5.1575
X4.9685Y-5.9075
X5.7185Y-3.9331
X5.7185Y-4.6831
X5.7185Y-5.4331
X6.4685Y-4.0512
X6.4685Y-4.8012
X6.4685Y-5.5512
X6.5046Y-6.4258
X7.245Y-6.842
X7.881Y-7.2395
T11
X7.2579Y-2.9547
X7.376Y-2.9547
T12
X7.4114Y-4.4154
X7.687Y-4.4154
T13
X1.7685Y-3.6555
X2.1685Y-3.6555
X2.5185Y-3.6555
X2.9185Y-3.6555
X3.2685Y-2.9055
X3.2685Y-3.6555
X3.6685Y-2.9055
X3.6685Y-3.6555
X4.0185Y-3.065
X4.4185Y-3.065
X4.7685Y-2.9075
X5.1685Y-2.9075
X5.5185Y-3.1831
X5.9185Y-3.1831
X6.2685Y-3.3012
X6.6685Y-3.3012
X7.5364Y-6.1398
X7.8756Y-6.3517
T14
X1.8185Y-3.5555
X1.8685Y-3.4555
X2.0685Y-3.4555
X2.1185Y-3.5555
X2.5685Y-3.5555
X2.6185Y-3.4555
X2.8185Y-3.4555
X2.8685Y-3.5555
X3.3185Y-2.8055
X3.3185Y-3.5555
X3.3685Y-2.7055
X3.3685Y-3.4555
X3.5685Y-2.7055
X3.5685Y-3.4555
X3.6185Y-2.8055
X3.6185Y-3.5555
X4.0685Y-2.965
X4.1185Y-2.865
X4.3185Y-2.865
X4.3685Y-2.965
X4.8185Y-2.8075
X4.8685Y-2.7075
X5.0685Y-2.7075
X5.1185Y-2.8075
X5.5685Y-3.0831
X5.6185Y-2.9831
X5.8185Y-2.9831
X5.8685Y-3.0831
X6.3185Y-3.2012
X6.3685Y-3.1012
X6.5685Y-3.1012
X6.6185Y-3.2012
X7.6318Y-6.0815
X7.7272Y-6.0231
X7.8862Y-6.2404
X7.8968Y-6.1291
T15
X1.9685Y-3.6555
X2.7185Y-3.6555
X3.4685Y-2.9055
X3.4685Y-3.6555
X4.2185Y-3.065
X4.9685Y-2.9075
X5.7185Y-3.1831
X6.4685Y-3.3012
X7.706Y-6.2457
T4
G00X7.3602Y-4.3248
M15
G01X7.2933Y-4.3248
M16
G05
G00X7.3602Y-4.5059
M15
G01X7.2933Y-4.5059
M16
G05
G00X7.5177Y-4.3248
M15
G01X7.4941Y-4.3248
M16
G05
G00X7.5177Y-4.5059
M15
G01X7.4941Y-4.5059
M16
G05
G00X7.6358Y-4.3248
M15
G01X7.6122Y-4.3248
M16
G05
G00X7.6358Y-4.5059
M15
G01X7.6122Y-4.5059
M16
G05
M30
